<?xml version="1.0" encoding="UTF-8"?> <svg xmlns="http://www.w3.org/2000/svg" width="32" height="32" viewBox="0 0 32 32" fill="none"><g clip-path="url(#clip0_31322_54485)"><path d="M32 16C32 7.16313 24.8362 0 16 0C7.16312 0 0 7.16375 0 16C0 24.8363 7.16312 32 16 32C24.8369 32 32 24.8369 32 16ZM25.2075 14.4544C24.3206 15.5563 23.4031 16.6969 22.4781 17.8594C22.2937 18.089 22.1924 18.3743 22.1906 18.6688C22.1887 20.1131 22.1569 21.5563 22.095 22.9981C22.0581 23.7569 21.3944 24.3819 20.7069 24.3819C20.5925 24.3819 20.4794 24.3644 20.3706 24.3294C19.08 23.9138 17.7606 23.4525 16.42 22.9631C16.1512 22.865 15.8562 22.865 15.5875 22.9631C14.2469 23.4544 12.9275 23.9138 11.6362 24.3294C11.5275 24.3644 11.4144 24.3819 11.3006 24.3819C10.615 24.3819 9.94936 23.7563 9.91249 22.9981C9.85124 21.5563 9.81936 20.1131 9.81686 18.6688C9.81499 18.3744 9.71374 18.0894 9.52999 17.8594C8.60436 16.6969 7.68686 15.5563 6.79936 14.4544C6.25311 13.7813 6.63374 12.7875 7.50874 12.5088C8.50162 12.1971 9.4924 11.8818 10.4794 11.5676C10.9114 11.4302 11.3427 11.2929 11.7731 11.1563C12.0587 11.065 12.3062 10.8825 12.4769 10.6363C13.3312 9.40564 14.1762 8.16751 14.9887 6.93626C15.0967 6.76408 15.2463 6.62181 15.4237 6.52254C15.601 6.42327 15.8005 6.37017 16.0037 6.36814L16 6.36751C16.4144 6.37064 16.7987 6.58501 17.0187 6.93626C17.8312 8.16751 18.6762 9.40564 19.5306 10.6363C19.7012 10.8825 19.9487 11.065 20.2344 11.1563C20.6647 11.2929 21.096 11.4301 21.528 11.5676C22.515 11.8817 23.5058 12.1971 24.4987 12.5088C25.3756 12.7875 25.7544 13.7813 25.2075 14.4544Z" fill="#F8BD18"></path></g><defs><clipPath id="clip0_31322_54485"><rect width="32" height="32" fill="white"></rect></clipPath></defs></svg> 