<?xml version="1.0" encoding="UTF-8"?> <svg xmlns="http://www.w3.org/2000/svg" width="32" height="32" viewBox="0 0 32 32" fill="none"><g clip-path="url(#clip0_31322_54501)"><path d="M21.1138 16.1875C20.9451 16.0149 20.7138 15.9175 20.4719 15.9168C19.9744 15.9156 19.5707 16.3175 19.5694 16.815C19.5682 17.3125 19.9707 17.7168 20.4676 17.7181C20.9651 17.7193 21.3694 17.3174 21.3707 16.82C21.3715 16.5836 21.2792 16.3563 21.1138 16.1875Z" fill="#F8BD18"></path><path d="M9.87381 17.9675C9.87337 17.7306 9.77975 17.5034 9.61318 17.3349C9.44443 17.1637 9.21318 17.0674 8.97318 17.0674H8.97131C8.47381 17.0681 8.07068 17.4718 8.07131 17.9699C8.07193 18.4674 8.47568 18.8706 8.97318 18.87C9.47131 18.8693 9.87443 18.4656 9.87381 17.9675Z" fill="#F8BD18"></path><path d="M31.9228 9.0262C32.0147 6.6262 32.0222 4.90495 31.9722 3.66995C31.9016 1.60182 30.4047 0.107445 28.3366 0.0343204C27.8441 0.0111954 27.2759 0.000570373 26.6191 0.000570373L26.621 -0.00130463C25.6259 0.000570373 24.4241 0.0249454 22.9784 0.0805704C20.8366 0.16182 19.1984 0.263695 17.9666 0.37057C17.7584 0.38057 17.5516 0.401195 17.3466 0.43307L17.2084 0.45432C17.0384 0.48182 16.8691 0.51807 16.7028 0.56307C15.983 0.740577 15.3074 1.06415 14.7178 1.5137C13.5453 2.3887 9.47595 6.17495 7.62907 8.1187C5.73595 10.0137 2.06345 14.2074 1.2072 15.4106C-0.224678 17.3681 -0.436552 20.4699 0.861573 22.5381C1.65595 23.7768 2.82407 25.3837 4.7172 27.2843C6.61032 29.1849 8.2247 30.3468 9.46345 31.1399C10.3928 31.7224 11.5316 32.0006 12.6809 32.0006C14.0891 32.0006 15.5134 31.5831 16.5909 30.7943C17.7941 29.9381 21.9878 26.2649 23.886 24.3756C25.8297 22.5287 29.6153 18.4593 30.4909 17.2868C30.9404 16.6974 31.2639 16.022 31.4416 15.3024C31.4861 15.1357 31.522 14.9667 31.5491 14.7962C31.5525 14.7731 31.5561 14.75 31.5597 14.7269C31.5633 14.7038 31.5669 14.6806 31.5703 14.6574C31.6003 14.4531 31.6203 14.2462 31.6328 14.0381C31.7397 12.8062 31.8416 11.1681 31.9228 9.0262ZM28.3494 5.72058C28.3494 6.8287 27.4513 7.72745 26.3432 7.72808C25.2351 7.7287 24.3357 6.82995 24.3357 5.72183C24.3351 4.6137 25.2338 3.71495 26.3419 3.71433C26.6056 3.71398 26.8666 3.76569 27.1102 3.86651C27.3538 3.96733 27.5751 4.11527 27.7613 4.30183C28.1377 4.67809 28.3492 5.1884 28.3494 5.72058ZM23.7482 16.8181C23.7482 17.6643 23.4226 18.51 22.7732 19.1512C22.1604 19.7563 21.3338 20.095 20.4726 20.0949H20.4507C18.6413 20.0831 17.1844 18.6062 17.1963 16.7968C17.2082 14.9875 18.6851 13.5306 20.4944 13.5425C21.3632 13.5481 22.1938 13.8987 22.8038 14.5168C23.4338 15.1556 23.7482 15.9868 23.7482 16.8181ZM16.2126 24.4212C16.1313 24.4381 16.0482 24.4468 15.9657 24.4475C15.4057 24.4468 14.9219 24.0549 14.8057 23.5068L12.1519 11.0587C12.0151 10.4175 12.4238 9.7862 13.0657 9.64933C13.7069 9.51183 14.3382 9.9212 14.4751 10.5625L17.1257 23.0118C17.2626 23.6531 16.8538 24.2843 16.2126 24.4212ZM12.2513 17.9687C12.2513 18.8131 11.9263 19.6574 11.2782 20.2981C10.6645 20.9044 9.83648 21.2442 8.97381 21.2437H8.97131C7.16193 21.2687 5.67506 19.8224 5.65006 18.0131C5.62506 16.2037 7.07131 14.7168 8.88068 14.6918C8.91068 14.6912 8.94131 14.6912 8.97131 14.6918H8.99318C9.86318 14.695 10.6963 15.0456 11.3057 15.6668C11.9363 16.305 12.2513 17.1368 12.2513 17.9687Z" fill="#F8BD18"></path></g><defs><clipPath id="clip0_31322_54501"><rect width="32" height="32" fill="white"></rect></clipPath></defs></svg> 