<?xml version="1.0" encoding="UTF-8"?> <svg xmlns="http://www.w3.org/2000/svg" width="24" height="24" viewBox="0 0 24 24" fill="none"><path d="M20.9814 8.47726C21.9085 8.77126 22.309 9.81938 21.7308 10.5293C20.7931 11.6915 19.823 12.8945 18.8451 14.1206C18.6501 14.3628 18.543 14.6637 18.5411 14.9743C18.5391 16.4977 18.5054 18.0198 18.44 19.5405C18.401 20.3408 17.6993 21 16.9724 21C16.8515 21 16.7318 20.9815 16.6169 20.9446C15.2523 20.5063 13.8574 20.0198 12.44 19.5036C12.1558 19.4001 11.844 19.4001 11.5598 19.5036C10.1424 20.0218 8.74747 20.5063 7.38227 20.9446C7.26729 20.9815 7.14769 21 7.02742 21C6.30253 21 5.59878 20.3401 5.5598 19.5405C5.49504 18.0198 5.46134 16.4977 5.45869 14.9743C5.45671 14.6638 5.34966 14.3632 5.15539 14.1206C4.17675 12.8945 3.20671 11.6915 2.26838 10.5293C1.69085 9.81938 2.09327 8.77126 3.01838 8.47726C4.52764 8.00461 6.03226 7.52406 7.52698 7.05076C7.82896 6.95451 8.09064 6.76203 8.27104 6.50231C9.17434 5.20435 10.0677 3.89848 10.9268 2.59987C11.041 2.41827 11.1991 2.26822 11.3866 2.16351C11.5741 2.05881 11.785 2.00281 11.9999 2.00066L11.9959 2C12.434 2.0033 12.8404 2.2294 13.073 2.59987C13.9321 3.89848 14.8255 5.20435 15.7288 6.50231C15.9092 6.76203 16.1708 6.95451 16.4728 7.05076C17.9675 7.52406 19.4722 8.00461 20.9814 8.47726Z" fill="#292724"></path></svg> 