<?xml version="1.0" encoding="UTF-8"?> <svg xmlns="http://www.w3.org/2000/svg" width="24" height="24" viewBox="0 0 24 24" fill="none"><g clip-path="url(#clip0_31322_54469)"><path d="M6.58588 8.0001H0.999902C0.450293 8.0001 0 8.4501 0 9V15C0 15.5499 0.450293 15.9999 0.999902 15.9999H6.58588L10.5858 12L6.58588 8.0001ZM15 0H9C8.4501 0 8.0001 0.450293 8.0001 0.999902V6.58588L12 10.5858L15.9999 6.58588V0.999902C15.9999 0.450293 15.5499 0 15 0ZM23.0001 8.0001H17.4141L13.4142 12L17.4141 15.9999H23.0001C23.5497 15.9999 24 15.5499 24 15V9C24 8.4501 23.5497 8.0001 23.0001 8.0001ZM12 13.4142L8.0001 17.4141V23.0001C8.0001 23.5497 8.4501 24 9 24H15C15.5499 24 15.9999 23.5497 15.9999 23.0001V17.4141L12 13.4142Z" fill="#292724"></path></g><defs><clipPath id="clip0_31322_54469"><rect width="24" height="24" fill="white"></rect></clipPath></defs></svg> 