<?xml version="1.0" encoding="UTF-8"?> <svg xmlns="http://www.w3.org/2000/svg" width="20" height="20" viewBox="0 0 20 20" fill="none"><path d="M16.5988 4.188C17.1268 4.956 17.5828 5.748 17.9668 6.564C18.3508 7.392 18.6628 8.244 18.9028 9.12C19.1428 9.996 19.2988 10.902 19.3708 11.838C19.4548 12.774 19.4488 13.746 19.3528 14.754C18.6448 15.282 17.8948 15.744 17.1028 16.14C16.3228 16.536 15.5128 16.86 14.6728 17.112C14.4928 16.86 14.3188 16.596 14.1508 16.32C13.9828 16.044 13.8268 15.768 13.6828 15.492C13.9588 15.384 14.2288 15.27 14.4928 15.15C14.7568 15.018 15.0088 14.874 15.2488 14.718C15.1888 14.682 15.1228 14.64 15.0508 14.592C14.9908 14.544 14.9308 14.49 14.8708 14.43C14.1388 14.778 13.3768 15.042 12.5848 15.222C11.8048 15.402 11.0128 15.492 10.2088 15.492C9.4048 15.492 8.6068 15.402 7.8148 15.222C7.0348 15.042 6.2788 14.778 5.5468 14.43C5.4868 14.478 5.4208 14.526 5.3488 14.574C5.2888 14.622 5.2288 14.67 5.1688 14.718C5.4088 14.874 5.6608 15.018 5.9248 15.15C6.1888 15.27 6.4588 15.384 6.7348 15.492C6.5908 15.768 6.4348 16.044 6.2668 16.32C6.0988 16.596 5.9188 16.86 5.7268 17.112C4.8988 16.86 4.0888 16.536 3.2968 16.14C2.5168 15.732 1.7728 15.27 1.0648 14.754C0.9928 13.89 0.9808 13.02 1.0288 12.144C1.0768 11.268 1.2028 10.392 1.4068 9.516C1.6228 8.64 1.9228 7.758 2.3068 6.87C2.7028 5.982 3.2008 5.088 3.8008 4.188C4.4128 3.9 5.0368 3.66 5.6728 3.468C6.3088 3.264 6.9568 3.108 7.6168 3C7.7008 3.168 7.7848 3.336 7.8688 3.504C7.9528 3.66 8.0308 3.828 8.1028 4.008C8.7988 3.9 9.5008 3.846 10.2088 3.846C10.9168 3.846 11.6188 3.9 12.3148 4.008C12.3868 3.828 12.4648 3.66 12.5488 3.504C12.6328 3.336 12.7168 3.168 12.8008 3C13.4608 3.108 14.1088 3.264 14.7448 3.468C15.3808 3.66 15.9988 3.9 16.5988 4.188ZM7.1488 12.612C7.6048 12.612 7.9888 12.432 8.3008 12.072C8.6248 11.712 8.7928 11.274 8.8048 10.758C8.8168 10.254 8.6608 9.822 8.3368 9.462C8.0128 9.09 7.6168 8.904 7.1488 8.904C6.6808 8.904 6.2848 9.09 5.9608 9.462C5.6488 9.822 5.4928 10.254 5.4928 10.758C5.4928 11.274 5.6548 11.712 5.9788 12.072C6.3028 12.432 6.6928 12.612 7.1488 12.612ZM13.2688 12.612C13.7368 12.612 14.1268 12.432 14.4388 12.072C14.7508 11.712 14.9128 11.274 14.9248 10.758C14.9368 10.254 14.7808 9.822 14.4568 9.462C14.1328 9.09 13.7368 8.904 13.2688 8.904C12.8008 8.904 12.4048 9.09 12.0808 9.462C11.7688 9.822 11.6128 10.254 11.6128 10.758C11.6128 11.274 11.7748 11.712 12.0988 12.072C12.4228 12.432 12.8128 12.612 13.2688 12.612Z" fill="#292724"></path></svg> 