<?xml version="1.0" encoding="UTF-8"?> <svg xmlns="http://www.w3.org/2000/svg" width="201" height="32" viewBox="0 0 201 32" fill="none"><path d="M27.1252 5.01113C26.3412 4.25111 25.4797 3.57062 24.5536 2.98267C24.1733 2.74119 23.6792 2.81014 23.3607 3.12871L20.6965 5.79289C20.0665 6.42286 18.9894 5.97669 18.9894 5.08579L18.9894 1.60893C18.9894 1.12851 18.6481 0.712575 18.1721 0.647643C17.4584 0.550291 16.7298 0.5 15.9894 0.5C15.249 0.5 14.5203 0.550291 13.8066 0.647642C13.3306 0.712574 12.9894 1.12851 12.9894 1.60893V5.08587C12.9894 5.97678 11.9122 6.42295 11.2823 5.79298L8.61801 3.12874C8.29944 2.81017 7.80535 2.74122 7.42501 2.9827C6.49897 3.57066 5.63747 4.25115 4.85351 5.01117C4.46924 5.3837 4.48485 5.99558 4.86329 6.37402L8.91824 10.429C12.8235 14.3342 19.1551 14.3342 23.0604 10.429L27.1154 6.37398C27.4938 5.99553 27.5094 5.38366 27.1252 5.01113Z" fill="#292724"></path><path d="M1.65693 11.9276C1.13996 11.7891 0.602258 12.0815 0.47177 12.6006C0.205556 13.6595 0.0469896 14.7458 0.00083247 15.8418C-0.018125 16.2919 0.288629 16.6853 0.723801 16.8019L4.36315 17.7771C5.2237 18.0077 5.37588 19.1636 4.60433 19.6091L1.59329 21.3475C1.17723 21.5877 0.987647 22.0912 1.16942 22.5359C1.44195 23.2026 1.76272 23.8588 2.13292 24.5C2.50312 25.1412 2.911 25.7471 3.35215 26.3165C3.64639 26.6963 4.17723 26.7838 4.59328 26.5436L7.6044 24.8052C8.37595 24.3597 9.30091 25.0695 9.07033 25.93L8.09515 29.5694C7.97855 30.0046 8.16588 30.467 8.56518 30.6756C9.53738 31.1836 10.5575 31.5895 11.6076 31.8884C12.1224 32.0349 12.6445 31.7154 12.783 31.1985L14.2672 25.6593C15.6966 20.3246 12.5308 14.8413 7.19616 13.4119L1.65693 11.9276Z" fill="#292724"></path><path d="M19.1958 31.1985C19.3343 31.7154 19.8564 32.0349 20.3711 31.8884C21.4213 31.5895 22.4414 31.1836 23.4136 30.6756C23.8129 30.467 24.0002 30.0046 23.8836 29.5694L22.9084 25.9301C22.6779 25.0695 23.6028 24.3598 24.3744 24.8052L27.3854 26.5437C27.8015 26.7839 28.3323 26.6963 28.6266 26.3165C29.0677 25.7471 29.4756 25.1413 29.8458 24.5C30.216 23.8588 30.5368 23.2027 30.8093 22.5359C30.9911 22.0912 30.8015 21.5877 30.3854 21.3475L27.3743 19.609C26.6028 19.1636 26.7549 18.0077 27.6155 17.7771L31.2549 16.8019C31.6901 16.6853 31.9968 16.2919 31.9779 15.8418C31.9317 14.7458 31.7731 13.6595 31.5069 12.6005C31.3764 12.0815 30.8387 11.7891 30.3218 11.9276L24.7826 13.4118C19.4479 14.8412 16.2821 20.3246 17.7115 25.6592L19.1958 31.1985Z" fill="#292724"></path><path d="M109.88 25.552C110.946 25.552 111.917 25.3387 112.792 24.912C113.252 24.6762 113.668 24.4021 114.039 24.0895V25.232H118.84V2H113.943V10.6897C113.588 10.4097 113.194 10.1692 112.759 9.968C111.906 9.56267 110.946 9.36 109.88 9.36C108.408 9.36 107.095 9.712 105.943 10.416C104.813 11.12 103.917 12.08 103.256 13.296C102.616 14.512 102.296 15.8987 102.296 17.456C102.296 19.0133 102.616 20.4 103.256 21.616C103.917 22.832 104.813 23.792 105.943 24.496C107.095 25.2 108.408 25.552 109.88 25.552ZM110.743 21.136C110.082 21.136 109.485 20.976 108.951 20.656C108.418 20.336 108.002 19.8987 107.703 19.344C107.405 18.7893 107.256 18.16 107.256 17.456C107.256 16.752 107.405 16.1227 107.703 15.568C108.023 15.0133 108.439 14.576 108.951 14.256C109.485 13.936 110.093 13.776 110.775 13.776C111.458 13.776 112.055 13.936 112.567 14.256C113.101 14.576 113.506 15.0133 113.784 15.568C114.082 16.1013 114.231 16.7307 114.231 17.456C114.231 18.1813 114.082 18.8213 113.784 19.376C113.485 19.9307 113.079 20.368 112.567 20.688C112.055 20.9867 111.448 21.136 110.743 21.136Z" fill="#292724"></path><path d="M73.8685 25.584C75.4898 25.584 76.9405 25.232 78.2205 24.528C79.5005 23.8027 80.5138 22.8213 81.2605 21.584C82.0072 20.3467 82.3805 18.96 82.3805 17.424C82.3805 15.888 82.0072 14.512 81.2605 13.296C80.5138 12.0587 79.5005 11.088 78.2205 10.384C76.9405 9.68 75.4898 9.328 73.8685 9.328C72.2472 9.328 70.7965 9.69067 69.5165 10.416C68.2365 11.12 67.2232 12.08 66.4765 13.296C65.7298 14.512 65.3565 15.888 65.3565 17.424C65.3565 18.96 65.7298 20.3467 66.4765 21.584C67.2232 22.8213 68.2365 23.8027 69.5165 24.528C70.8178 25.232 72.2685 25.584 73.8685 25.584ZM73.8685 21.136C73.1858 21.136 72.5778 20.9867 72.0445 20.688C71.5112 20.368 71.0952 19.9307 70.7965 19.376C70.4978 18.8 70.3485 18.16 70.3485 17.456C70.3485 16.7307 70.4978 16.0907 70.7965 15.536C71.0952 14.9813 71.5112 14.5547 72.0445 14.256C72.5778 13.936 73.1858 13.776 73.8685 13.776C74.5725 13.776 75.1805 13.936 75.6925 14.256C76.2258 14.5547 76.6418 14.9813 76.9405 15.536C77.2392 16.0693 77.3885 16.6987 77.3885 17.424C77.3885 18.1493 77.2392 18.8 76.9405 19.376C76.6632 19.9307 76.2578 20.368 75.7245 20.688C75.1912 20.9867 74.5725 21.136 73.8685 21.136Z" fill="#292724"></path><path d="M40 9.68L45.376 25.232H49.344L52.4107 16.272L55.424 25.232H59.424L64.8 9.68H60L57.3202 18.6893L54.368 9.68H50.4L47.4633 18.7199L44.8 9.68H40Z" fill="#292724"></path><path d="M87.954 24.528C89.2553 25.232 90.706 25.584 92.306 25.584C93.9273 25.584 95.378 25.232 96.658 24.528C97.938 23.8027 98.9513 22.8213 99.698 21.584C100.445 20.3467 100.818 18.96 100.818 17.424C100.818 15.888 100.445 14.512 99.698 13.296C98.9513 12.0587 97.938 11.088 96.658 10.384C95.378 9.68 93.9273 9.328 92.306 9.328C90.6847 9.328 89.234 9.69067 87.954 10.416C86.674 11.12 85.6607 12.08 84.914 13.296C84.1673 14.512 83.794 15.888 83.794 17.424C83.794 18.96 84.1673 20.3467 84.914 21.584C85.6607 22.8213 86.674 23.8027 87.954 24.528ZM94.162 20.688C93.6287 20.9867 93.01 21.136 92.306 21.136C91.6233 21.136 91.0153 20.9867 90.482 20.688C89.9487 20.368 89.5327 19.9307 89.234 19.376C88.9353 18.8 88.786 18.16 88.786 17.456C88.786 16.7307 88.9353 16.0907 89.234 15.536C89.5327 14.9813 89.9487 14.5547 90.482 14.256C91.0153 13.936 91.6233 13.776 92.306 13.776C93.01 13.776 93.618 13.936 94.13 14.256C94.6633 14.5547 95.0793 14.9813 95.378 15.536C95.6767 16.0693 95.826 16.6987 95.826 17.424C95.826 18.1493 95.6767 18.8 95.378 19.376C95.1007 19.9307 94.6953 20.368 94.162 20.688Z" fill="#292724"></path><path d="M127.183 10.8295V9.68H122.287V25.232H127.183V16.144C127.183 15.6107 127.289 15.1627 127.503 14.8C127.737 14.4373 128.047 14.16 128.431 13.968C128.815 13.7547 129.252 13.648 129.743 13.648C130.447 13.648 131.033 13.872 131.503 14.32C131.993 14.7467 132.239 15.3547 132.239 16.144V25.232H137.135V16.144C137.135 15.6107 137.241 15.1627 137.455 14.8C137.689 14.4373 137.999 14.16 138.383 13.968C138.767 13.7547 139.204 13.648 139.695 13.648C140.399 13.648 140.985 13.872 141.455 14.32C141.945 14.7467 142.191 15.3547 142.191 16.144V25.232H147.087V15.6C147.087 14.2987 146.809 13.1893 146.255 12.272C145.721 11.3333 144.985 10.6187 144.047 10.128C143.129 9.616 142.073 9.36 140.879 9.36C139.663 9.36 138.564 9.62667 137.583 10.16C136.946 10.4998 136.388 10.9384 135.911 11.4756C135.466 10.9136 134.925 10.4538 134.287 10.096C133.433 9.60533 132.463 9.36 131.375 9.36C130.223 9.36 129.188 9.60533 128.271 10.096C127.872 10.3001 127.509 10.5446 127.183 10.8295Z" fill="#292724"></path><path d="M156.72 25.552C157.766 25.552 158.715 25.3493 159.568 24.944C160.119 24.6822 160.599 24.358 161.008 23.9716V25.232H165.808V9.68H161.008V10.9715C160.586 10.5682 160.096 10.2337 159.536 9.968C158.704 9.56267 157.766 9.36 156.72 9.36C155.291 9.36 154.011 9.712 152.88 10.416C151.771 11.12 150.886 12.08 150.224 13.296C149.584 14.512 149.264 15.8987 149.264 17.456C149.264 19.0133 149.584 20.4 150.224 21.616C150.886 22.832 151.771 23.792 152.88 24.496C154.011 25.2 155.291 25.552 156.72 25.552ZM157.712 21.136C157.051 21.136 156.454 20.976 155.92 20.656C155.387 20.336 154.971 19.8987 154.672 19.344C154.374 18.7893 154.224 18.16 154.224 17.456C154.224 16.7307 154.374 16.0907 154.672 15.536C154.992 14.9813 155.408 14.5547 155.92 14.256C156.454 13.936 157.062 13.776 157.744 13.776C158.427 13.776 159.024 13.936 159.536 14.256C160.07 14.5547 160.475 14.9813 160.752 15.536C161.051 16.0907 161.2 16.7307 161.2 17.456C161.2 18.5227 160.88 19.408 160.24 20.112C159.6 20.7947 158.758 21.136 157.712 21.136Z" fill="#292724"></path><path d="M174.152 10.864V9.68H169.255V25.232H174.152V16.688C174.152 15.6853 174.386 14.9387 174.855 14.448C175.346 13.936 175.997 13.68 176.807 13.68C177.213 13.68 177.576 13.744 177.895 13.872C178.215 14 178.482 14.1813 178.695 14.416L181.607 10.736C181.181 10.2667 180.68 9.92533 180.104 9.712C179.549 9.47733 178.898 9.36 178.152 9.36C176.445 9.36 175.112 9.86133 174.152 10.864Z" fill="#292724"></path><path d="M195.747 24.72C195.193 24.144 194.915 23.4507 194.915 22.64C194.915 21.7867 195.193 21.0827 195.747 20.528C196.302 19.952 196.995 19.664 197.827 19.664C198.681 19.664 199.374 19.952 199.908 20.528C200.462 21.0827 200.74 21.7867 200.74 22.64C200.74 23.4507 200.462 24.144 199.908 24.72C199.374 25.296 198.681 25.584 197.827 25.584C196.995 25.584 196.302 25.296 195.747 24.72Z" fill="#292724"></path><path d="M185.276 13.84V25.232H190.172V13.84H193.692V9.68H190.172V3.248H185.276V9.68H181.756V13.84H185.276Z" fill="#292724"></path></svg> 