<?xml version="1.0" encoding="UTF-8"?> <svg xmlns="http://www.w3.org/2000/svg" width="20" height="20" viewBox="0 0 20 20" fill="none"><path d="M10.064 5.924C10.64 5.924 11.18 6.032 11.684 6.248C12.188 6.464 12.626 6.758 12.998 7.13C13.37 7.502 13.664 7.94 13.88 8.444C14.096 8.948 14.204 9.488 14.204 10.064C14.204 10.64 14.096 11.174 13.88 11.666C13.664 12.17 13.37 12.614 12.998 12.998C12.626 13.37 12.188 13.664 11.684 13.88C11.18 14.096 10.64 14.204 10.064 14.204C9.488 14.204 8.954 14.096 8.462 13.88C7.958 13.664 7.514 13.37 7.13 12.998C6.758 12.614 6.464 12.17 6.248 11.666C6.032 11.162 5.924 10.628 5.924 10.064C5.924 9.488 6.032 8.948 6.248 8.444C6.464 7.94 6.758 7.502 7.13 7.13C7.514 6.758 7.958 6.464 8.462 6.248C8.966 6.032 9.5 5.924 10.064 5.924ZM10.064 12.746C10.808 12.746 11.444 12.488 11.972 11.972C12.5 11.444 12.764 10.808 12.764 10.064C12.764 9.32 12.5 8.684 11.972 8.156C11.444 7.628 10.808 7.364 10.064 7.364C9.32 7.364 8.684 7.628 8.156 8.156C7.64 8.684 7.382 9.32 7.382 10.064C7.382 10.808 7.646 11.444 8.174 11.972C8.702 12.488 9.332 12.746 10.064 12.746ZM15.338 5.762C15.338 5.486 15.242 5.258 15.05 5.078C14.87 4.886 14.642 4.79 14.366 4.79C14.102 4.79 13.874 4.886 13.682 5.078C13.502 5.258 13.412 5.486 13.412 5.762C13.412 6.026 13.502 6.254 13.682 6.446C13.874 6.626 14.102 6.716 14.366 6.716C14.642 6.716 14.87 6.626 15.05 6.446C15.242 6.254 15.338 6.026 15.338 5.762ZM18.074 6.734C18.098 7.07 18.116 7.544 18.128 8.156C18.128 8.756 18.128 9.392 18.128 10.064C18.128 10.724 18.128 11.36 18.128 11.972C18.116 12.584 18.098 13.058 18.074 13.394C18.038 14.03 17.93 14.636 17.75 15.212C17.57 15.776 17.246 16.292 16.778 16.76C16.298 17.24 15.776 17.57 15.212 17.75C14.648 17.93 14.042 18.038 13.394 18.074C13.058 18.086 12.584 18.098 11.972 18.11C11.372 18.122 10.736 18.128 10.064 18.128C9.404 18.128 8.768 18.122 8.156 18.11C7.544 18.098 7.07 18.086 6.734 18.074C6.086 18.038 5.48 17.93 4.916 17.75C4.352 17.57 3.83 17.24 3.35 16.76C2.882 16.292 2.558 15.776 2.378 15.212C2.198 14.636 2.09 14.03 2.054 13.394C2.03 13.058 2.018 12.584 2.018 11.972C2.006 11.36 2 10.724 2 10.064C2 9.392 2.006 8.75 2.018 8.138C2.018 7.538 2.03 7.07 2.054 6.734C2.09 6.086 2.198 5.48 2.378 4.916C2.558 4.34 2.882 3.818 3.35 3.35C3.83 2.882 4.352 2.558 4.916 2.378C5.492 2.186 6.098 2.078 6.734 2.054C7.07 2.03 7.544 2.012 8.156 2C8.768 2 9.404 2 10.064 2C10.736 2 11.372 2 11.972 2C12.584 2.012 13.058 2.03 13.394 2.054C14.042 2.09 14.648 2.198 15.212 2.378C15.788 2.558 16.31 2.882 16.778 3.35C17.246 3.83 17.57 4.352 17.75 4.916C17.942 5.48 18.05 6.086 18.074 6.734ZM16.364 14.816C16.46 14.552 16.532 14.21 16.58 13.79C16.628 13.37 16.658 12.932 16.67 12.476C16.694 12.02 16.7 11.576 16.688 11.144C16.688 10.712 16.688 10.352 16.688 10.064C16.688 9.764 16.688 9.398 16.688 8.966C16.7 8.534 16.694 8.09 16.67 7.634C16.658 7.178 16.628 6.746 16.58 6.338C16.532 5.918 16.46 5.576 16.364 5.312C16.22 4.952 16.016 4.64 15.752 4.376C15.488 4.112 15.176 3.908 14.816 3.764C14.552 3.668 14.21 3.596 13.79 3.548C13.382 3.5 12.95 3.47 12.494 3.458C12.038 3.446 11.594 3.44 11.162 3.44C10.73 3.44 10.364 3.44 10.064 3.44C9.776 3.44 9.416 3.44 8.984 3.44C8.552 3.428 8.108 3.434 7.652 3.458C7.196 3.47 6.758 3.5 6.338 3.548C5.918 3.596 5.576 3.668 5.312 3.764C4.952 3.908 4.64 4.112 4.376 4.376C4.112 4.64 3.914 4.952 3.782 5.312C3.674 5.576 3.596 5.918 3.548 6.338C3.5 6.746 3.47 7.178 3.458 7.634C3.446 8.09 3.44 8.534 3.44 8.966C3.452 9.398 3.458 9.764 3.458 10.064C3.458 10.352 3.452 10.712 3.44 11.144C3.44 11.576 3.446 12.02 3.458 12.476C3.47 12.932 3.5 13.37 3.548 13.79C3.596 14.21 3.674 14.552 3.782 14.816C3.926 15.176 4.13 15.488 4.394 15.752C4.658 16.016 4.964 16.214 5.312 16.346C5.576 16.454 5.918 16.532 6.338 16.58C6.758 16.628 7.196 16.658 7.652 16.67C8.108 16.682 8.552 16.688 8.984 16.688C9.416 16.676 9.776 16.67 10.064 16.67C10.364 16.67 10.73 16.676 11.162 16.688C11.594 16.688 12.038 16.682 12.494 16.67C12.95 16.658 13.382 16.628 13.79 16.58C14.21 16.532 14.552 16.454 14.816 16.346C15.176 16.202 15.488 15.998 15.752 15.734C16.016 15.47 16.22 15.164 16.364 14.816Z" fill="#292724"></path></svg> 