<?xml version="1.0" encoding="UTF-8"?> <svg xmlns="http://www.w3.org/2000/svg" width="24" height="24" viewBox="0 0 24 24" fill="none"><path d="M22.7706 8.38875L21.3171 10.326C21.1959 10.4872 21.0436 10.6224 20.8692 10.7235C20.6947 10.8246 20.5017 10.8897 20.3016 10.9148C20.1012 10.9392 19.8979 10.923 19.7038 10.8672C19.5098 10.8114 19.329 10.7172 19.1721 10.59L18.7506 10.284V21C18.7506 21.8272 18.0779 22.5 17.2506 22.5H6.74987C5.92262 22.5 5.24987 21.8272 5.24987 21V10.2847L4.79612 10.6147C4.51337 10.8465 4.10162 10.965 3.69887 10.9148C3.49865 10.8898 3.3055 10.8248 3.13092 10.7236C2.95633 10.6225 2.80387 10.4873 2.68262 10.326L1.22987 8.38875C1.03807 8.13424 0.932594 7.82511 0.928816 7.50644C0.925038 7.18778 1.02316 6.87624 1.20887 6.61725L4.19087 2.442C4.39926 2.15085 4.67402 1.91354 4.99239 1.74973C5.31076 1.58591 5.66357 1.50031 6.02162 1.5H8.13512C8.65637 1.5 9.13337 1.78275 9.40936 2.25675C9.94637 3.1785 10.9386 3.75 11.9999 3.75C13.0611 3.75 14.0534 3.17775 14.5904 2.25675C14.8671 1.78275 15.3434 1.5 15.8646 1.5H17.9781C18.7026 1.5 19.3874 1.8525 19.8089 2.442L22.7916 6.61725C22.9772 6.87625 23.0753 7.18771 23.0717 7.50632C23.068 7.82493 22.9621 8.13406 22.7706 8.38875Z" fill="#292724"></path></svg> 