<?xml version="1.0" encoding="UTF-8"?> <svg xmlns="http://www.w3.org/2000/svg" width="20" height="20" viewBox="0 0 20 20" fill="none"><path d="M14.216 11.368H11.534V19.432H7.934V11.368H5V8.038H7.934V5.482C7.934 4.762 8.036 4.126 8.24 3.574C8.444 3.01 8.732 2.542 9.104 2.17C9.488 1.786 9.95 1.492 10.49 1.288C11.03 1.096 11.63 1 12.29 1C12.914 1 13.496 1.042 14.036 1.126C14.588 1.198 14.864 1.234 14.864 1.234V4.06H13.406C12.698 4.06 12.206 4.246 11.93 4.618C11.666 4.99 11.534 5.404 11.534 5.86V8.038H14.738L14.216 11.368Z" fill="#292724"></path></svg> 