<?xml version="1.0" encoding="UTF-8"?> <svg xmlns="http://www.w3.org/2000/svg" width="32" height="32" viewBox="0 0 32 32" fill="none"><g clip-path="url(#clip0_31322_54493)"><path d="M6.43375 0.3575C4.87819 0.518676 3.42538 1.2099 2.31904 2.31523C1.21269 3.42055 0.520117 4.87272 0.3575 6.42812L0.353125 6.47563C0.313787 6.85232 0.276111 7.16604 0.240994 7.45844C0.0998046 8.63407 0 9.4651 0 12.6594C0 16.0246 0.110771 17.0089 0.264006 18.3705C0.292399 18.6227 0.32225 18.888 0.353125 19.1838L0.3575 19.2306C0.520117 20.786 1.21269 22.2382 2.31904 23.3435C3.42538 24.4488 4.87819 25.1401 6.43375 25.3013C7.69187 25.4325 9.4 25.5275 11.2706 25.5869L14.9006 31.3513C15.0259 31.5499 15.1994 31.7137 15.405 31.8271C15.6107 31.9406 15.8417 32.0001 16.0766 32.0001C16.3114 32.0001 16.5425 31.9406 16.7481 31.8271C16.9537 31.7137 17.1273 31.5499 17.2525 31.3513L20.8856 25.5819C22.695 25.5194 24.3431 25.4288 25.5656 25.3013C27.1214 25.1406 28.5745 24.4496 29.681 23.3442C30.7874 22.2387 31.4798 20.7862 31.6419 19.2306L31.6469 19.1831C31.6777 18.8876 31.7076 18.6225 31.736 18.3704C31.8892 17.009 32 16.0248 32 12.6594C32 9.46563 31.9002 8.63474 31.7591 7.45926C31.7239 7.16665 31.6862 6.8527 31.6469 6.47563L31.6419 6.42812C31.4798 4.8726 30.7875 3.42019 29.6812 2.31477C28.5749 1.20935 27.1219 0.518248 25.5662 0.3575C23.2856 0.12 19.5275 0 16 0C12.4725 0 8.71438 0.12 6.43375 0.3575ZM14.5185 21.6158C14.1911 21.3966 13.936 21.0853 13.7855 20.7212C13.6349 20.3571 13.5957 19.9565 13.6728 19.5702C13.7499 19.1838 13.9398 18.8289 14.2186 18.5504C14.4973 18.272 14.8523 18.0824 15.2388 18.0057C15.6253 17.9289 16.0258 17.9685 16.3898 18.1194C16.7537 18.2702 17.0648 18.5256 17.2837 18.8532C17.5025 19.1809 17.6193 19.566 17.6193 19.96C17.6192 20.2218 17.5676 20.481 17.4673 20.7229C17.367 20.9647 17.2201 21.1844 17.0349 21.3694C16.8497 21.5544 16.6298 21.7012 16.3879 21.8012C16.146 21.9013 15.8867 21.9527 15.625 21.9525C15.231 21.9521 14.8459 21.835 14.5185 21.6158ZM16.9581 15.7606C16.9581 16.2169 16.7181 16.745 15.5418 16.745C14.5581 16.745 14.2225 16.385 14.2225 15.1369C14.2225 13.0744 15.1343 12.0894 15.83 11.4894C15.9743 11.3668 16.1369 11.2419 16.3064 11.1117C17.0672 10.5275 17.9662 9.83704 17.9662 8.77752C17.9662 7.67315 17.0062 7.14565 15.8062 7.14565C14.3892 7.14565 13.9693 7.76461 13.6156 8.28601C13.3582 8.66541 13.1359 8.99315 12.59 8.99315C11.9425 8.99315 11.1525 8.56127 11.1525 7.62565C11.1525 6.3294 12.64 4.4094 15.88 4.4094C18.9518 4.4094 20.9918 6.11377 20.9918 8.3694C20.9918 10.625 18.9487 12.2563 18.3006 12.7606H18.3018C16.9818 13.7925 16.9581 14.5106 16.9581 15.7606Z" fill="#F8BD18"></path></g><defs><clipPath id="clip0_31322_54493"><rect width="32" height="32" fill="white"></rect></clipPath></defs></svg> 