<?xml version="1.0" encoding="UTF-8"?> <svg xmlns="http://www.w3.org/2000/svg" width="32" height="32" viewBox="0 0 32 32" fill="none"><g clip-path="url(#clip0_31322_54477)"><path d="M3.41427 22.7742C2.86944 23.0002 2.37476 23.3318 1.95875 23.75C0.709379 25 0.217504 26.9413 0.0625042 28.6981C-0.0264373 29.6929 -0.0212057 30.6938 0.0781292 31.6875C0.105004 31.9375 0.344379 31.9919 0.385629 32H0.437504C0.695629 32 1.96313 31.9325 2.375 30.6313C2.45423 30.3696 2.57085 30.1208 2.72125 29.8925C2.76386 29.8263 2.82242 29.7719 2.89154 29.7342C2.96067 29.6965 3.03815 29.6768 3.11688 29.6769C3.18733 29.6757 3.25718 29.6899 3.32156 29.7185C3.38595 29.7471 3.4433 29.7895 3.48961 29.8426C3.53592 29.8957 3.57008 29.9583 3.58968 30.0259C3.60929 30.0936 3.61388 30.1647 3.60313 30.2344C3.53186 30.7672 3.64193 31.3085 3.91563 31.7712C3.94191 31.8159 3.97935 31.8529 4.02429 31.8787C4.06922 31.9044 4.12009 31.918 4.17188 31.9181C4.18696 31.9181 4.20201 31.9169 4.21688 31.9144C5.71688 31.6844 7.25563 31.1694 8.30813 30.1144C8.9353 29.4852 9.36221 28.6845 9.53506 27.8131C9.70792 26.9417 9.61898 26.0386 9.27946 25.2177C8.93993 24.3967 8.36502 23.6946 7.62716 23.1999C6.8893 22.7052 6.0215 22.4399 5.13313 22.4375V22.4331C4.54328 22.4322 3.9591 22.5481 3.41427 22.7742Z" fill="#F8BD18"></path><path d="M13.4094 6.57625L12.1819 7.80625C11.7402 8.24958 11.3202 8.70437 10.9219 9.17062H7.05313C6.23125 9.2025 5.505 9.6775 5.09438 10.3744L2.81938 14.9369C2.75916 15.1007 2.71724 15.2707 2.69438 15.4438C2.69762 15.7362 2.81506 16.0158 3.02164 16.2229C3.22822 16.4299 3.50756 16.548 3.8 16.5519H6.675C6.3 17.8106 6.55 19.0475 7.34813 19.8469L12.2044 24.715C12.7581 25.27 13.5231 25.56 14.3594 25.56C14.7429 25.5581 15.1241 25.5008 15.4913 25.39V28.2719C15.4943 28.5644 15.6117 28.8442 15.8183 29.0514C16.0249 29.2586 16.3043 29.3767 16.5969 29.3806C16.7695 29.3578 16.9391 29.3158 17.1025 29.2556L21.6519 26.9756C22 26.7745 22.2922 26.4894 22.5019 26.1464C22.7116 25.8034 22.8322 25.4134 22.8525 25.0119V21.1294C23.3167 20.7302 23.7702 20.3092 24.2131 19.8662L25.4375 18.6356C30.0388 14.0231 32.2838 8.10875 31.9681 2.80188C31.8781 1.23937 30.7638 0.125 29.205 0.029375C28.8783 0.00979167 28.5494 0 28.2181 0C23.1875 0 17.7269 2.25 13.4094 6.57625ZM23.1111 11.5556C21.6384 11.5556 20.4444 10.3616 20.4444 8.88889C20.4444 7.41613 21.6384 6.22222 23.1111 6.22222C24.5839 6.22222 25.7778 7.41613 25.7778 8.88889C25.7778 10.3616 24.5839 11.5556 23.1111 11.5556Z" fill="#F8BD18"></path></g><defs><clipPath id="clip0_31322_54477"><rect width="32" height="32" fill="white"></rect></clipPath></defs></svg> 