<?xml version="1.0" encoding="UTF-8"?> <svg xmlns="http://www.w3.org/2000/svg" width="48" height="48" viewBox="0 0 48 48" fill="none"><g clip-path="url(#clip0_31367_29413)"><path fill-rule="evenodd" clip-rule="evenodd" d="M47.0067 13.7693L42.9206 16.4447L27.5634 26.1366C26.5011 26.8022 25.2728 27.1552 24.0192 27.1552C22.7656 27.1552 21.5373 26.8022 20.475 26.1366L5.07938 16.4381L0.997785 13.7686C0.490422 16.2281 0.00733879 19.5482 0 24.0459C0.0075 28.6397 0.512813 32.0091 1.03125 34.485C1.93406 38.5612 5.88563 42.2953 9.97313 43.0884C12.3675 43.5666 18.8794 44.1534 23.4581 44.1534H24.5513C29.1338 44.1534 35.6428 43.5666 38.0363 43.0884C42.1238 42.2953 46.0753 38.5612 46.9781 34.485C47.4928 32.0091 47.9972 28.6425 48.0047 24.0459C47.9928 19.5486 47.5088 16.2287 47.0067 13.7693ZM38.0316 5.00438C40.7105 5.52419 43.3311 7.30729 45.0732 9.62205L41.325 12.1238L25.1616 22.3284C24.8187 22.543 24.4223 22.6568 24.0178 22.6568C23.6133 22.6568 23.217 22.543 22.8741 22.3284L6.67781 12.1266L2.92709 9.62278C4.66791 7.30748 7.28917 5.5236 9.96844 5.0025C12.3619 4.52438 18.8719 3.9375 23.4534 3.9375H24.5466C29.1291 3.9375 35.6381 4.52625 38.0316 5.00438Z" fill="#F8BD18"></path></g><defs><clipPath id="clip0_31367_29413"><rect width="48" height="48" fill="white"></rect></clipPath></defs></svg> 